<svg width="16" height="17" viewBox="0 0 16 17" fill="none" xmlns="http://www.w3.org/2000/svg">
<path fill-rule="evenodd" clip-rule="evenodd" d="M15.5601 8.51785C15.547 8.2333 15.4539 7.9366 15.2351 7.73641C15.2348 7.73641 15.2345 7.73609 15.2342 7.73577L14.0197 6.52133L12.0786 4.58022L11.6338 4.13535C11.4337 3.93532 11.1348 3.81147 10.8523 3.81037C10.5809 3.81039 10.2571 3.93029 10.0708 4.13547C9.87877 4.34609 9.73456 4.62185 9.74574 4.91696C9.7582 5.21078 9.85804 5.48572 10.0707 5.6984L11.2884 6.91603L11.7841 7.41179L10.1052 7.41176C8.86358 7.41185 7.61945 7.41194 6.37916 7.41204C5.30755 7.41212 4.23849 7.4122 3.16592 7.41228C2.64708 7.41232 2.1244 7.40596 1.60555 7.4124L1.58315 7.4124C1.29796 7.41242 1.00348 7.53567 0.801662 7.73749C0.608962 7.93019 0.465864 8.24196 0.476565 8.51898C0.489507 8.80337 0.582626 9.10039 0.801543 9.30042C1.02014 9.50045 1.28595 9.62606 1.58298 9.6254L2.86809 9.6253L5.93137 9.62523L9.65752 9.62479C10.3681 9.62474 11.0787 9.62468 11.7889 9.62463L10.5154 10.8981L10.0701 11.3434C9.87007 11.5435 9.74634 11.8423 9.74503 12.1249C9.74517 12.3962 9.86502 12.7199 10.0702 12.9062C10.2808 13.0982 10.5563 13.2425 10.8515 13.2313C11.144 13.2162 11.421 13.1181 11.6329 12.9062L12.8509 11.6882L14.7922 9.74699L15.2373 9.3019C15.3504 9.18874 15.4308 9.05398 15.4834 8.90978C15.5342 8.78159 15.5651 8.64636 15.5601 8.51785Z" fill="#37003c"/>
</svg>
