<svg xmlns="http://www.w3.org/2000/svg" viewBox="0 0 18 18"><path fill-rule="evenodd" d="M15.56 5.018c-.013-.285-.106-.581-.325-.782L14.02 3.02l-1.941-1.94-.445-.446a1.15 1.15 0 0 0-.782-.325c-.271 0-.595.12-.781.325-.192.211-.336.487-.325.782.012.294.112.569.325.781l1.218 1.218.495.496H3.166c-.519 0-1.041-.006-1.56 0h-.023c-.285 0-.58.124-.781.326-.193.192-.336.504-.325.781.013.284.106.581.325.781.218.2.484.326.781.325H11.79l-1.274 1.273-.445.445c-.2.2-.324.5-.325.782 0 .271.12.595.325.781.21.192.486.337.782.325.292-.015.57-.113.781-.325l1.218-1.218 1.941-1.941.445-.445c.114-.113.194-.248.247-.392a.981.981 0 0 0 .076-.392Z" clip-rule="evenodd" fill="#37003C"/></svg>
