<svg xmlns="http://www.w3.org/2000/svg" width="16" height="11" fill="none"><path fill="#87668A" fill-rule="evenodd" d="M7.814.181c3.095.003 5.748.158 6.315.58.164.118.363.212.469.378.585.769.679 1.857.702 4.352-.023 2.495-.117 3.583-.702 4.352-.106.178-.305.26-.469.378-.573.438-3.277.58-6.415.604-3.137-.024-5.97-.166-6.532-.604-.175-.118-.374-.2-.491-.378C.117 9.074.035 7.986 0 5.491c.035-2.495.117-3.583.69-4.352.118-.166.317-.26.492-.378C1.744.335 4.577.18 7.714.18h.1ZM5.572 2.793H4.338L2.381 7.83h1.067l.474-1.263h2.074l.475 1.263h1.066L5.572 2.793Zm4.418 0H8.223V7.83H9.99c1.71 0 2.658-1.051 2.658-2.52 0-1.467-.949-2.518-2.658-2.518Zm0 .934c1.11 0 1.673.657 1.673 1.585 0 .927-.563 1.584-1.673 1.584H9.21V3.727h.781Zm-5.03.08.7 1.855H4.258l.701-1.854Z" clip-rule="evenodd"/></svg>